<?xml version="1.0" standalone="no"?>
<!DOCTYPE svg PUBLIC "-//W3C//DTD SVG 20010904//EN"
 "http://www.w3.org/TR/2001/REC-SVG-20010904/DTD/svg10.dtd">
<svg version="1.0" xmlns="http://www.w3.org/2000/svg"
 width="512.000000pt" height="512.000000pt" viewBox="0 0 512.000000 512.000000"
 preserveAspectRatio="xMidYMid meet">

<g transform="translate(0.000000,512.000000) scale(0.100000,-0.100000)"
fill="#e00" stroke="none">
<path d="M2420 4789 c-757 -62 -1365 -414 -1735 -1004 -161 -258 -277 -587
-321 -912 -23 -171 -23 -455 0 -626 100 -743 524 -1357 1155 -1673 348 -174
813 -271 1164 -243 517 41 946 202 1297 486 98 79 271 258 342 353 411 548
554 1285 383 1970 -79 315 -229 622 -423 861 -87 108 -283 293 -390 369 -314
222 -672 358 -1062 404 -179 21 -290 25 -410 15z m-605 -1280 c34 -9 97 -68
393 -362 l352 -351 353 351 c312 311 357 352 396 363 113 30 231 -89 201 -202
-11 -38 -55 -86 -363 -395 l-351 -353 351 -353 c383 -384 385 -386 362 -471
-14 -51 -73 -111 -124 -125 -85 -23 -87 -22 -472 362 l-353 351 -352 -351
c-310 -308 -358 -352 -396 -363 -53 -14 -99 -1 -147 42 -49 42 -70 103 -55
159 11 39 52 84 363 397 l351 352 -351 353 c-308 309 -352 357 -363 395 -20
76 24 157 105 193 47 22 49 22 100 8z"/>
</g>
</svg>
